# xmcd CD database file generated by OrangeCD 5.2
#
# Track frame offsets:
#	150
#	19402
#	37715
#	54797
#	72420
#	88192
#	98747
#	115652
#	134470
#	152150
#
# Disc length: 2251 seconds
#
# Revision: 2
# Processed by: cddbd v1.5.1PL0 Copyright (c) Steve Scherf et al.
# Submitted via: OrangeCD 5.2
#
DISCID=7a08c90a
DTITLE=Various Artist - BNA Records Happy Ho Ho Holidays1997
DYEAR=1996
DGENRE=country
TTITLE0=Various Artist - Make a Miracle
TTITLE1=Mindy McReady - Let's Talk About Love
TTITLE2=Mindy McReady - Silent Night
TTITLE3=Ray Vega - Take a Walk Through Bethlehem
TTITLE4=Lonestar - I'll Be Home for Christmas
TTITLE5=Lonestar - All My Love
TTITLE6=Lorrie Morgan - My Favorite Things
TTITLE7=Lorrie Morgan - Up On Santa Claus Mountain
TTITLE8=Lorrie Morgan - Blue Snowfall
TTITLE9=K.T. Oslin - Blue Christmas
EXTD=mdb
EXTT0=
EXTT1=
EXTT2=
EXTT3=
EXTT4=
EXTT5=
EXTT6=
EXTT7=
EXTT8=
EXTT9=
PLAYORDER=
